PathFileType	4	(X/Y/Z)	C:/Users/beibeiliu/ov580/test_trc/capture2\sequence.6_training_dense_right.trc
DataRate	CameraRate	NumFrames	NumMarkers	Units	OrigDataRate	OrigDataStartFrame	OrigNumFrames
120	120	22	19	mm	120	265	353
Frame#	Time	ThumbCMC			ThumbMCP			ThumbIP			ThumbTip			IndexMCP			IndexPIP			IndexTip			MiddleMCP			MiddlePIP			MiddleTip			RingMCP			RingPIP			RingTip			PinkyMCP			PinkyPIP			PinkyTip			BackHand1			BackHand2			BackHand3	
		X0	Y0	Z0	X1	Y1	Z1	X2	Y2	Z2	X3	Y3	Z3	X4	Y4	Z4	X5	Y5	Z5	X6	Y6	Z6	X7	Y7	Z7	X8	Y8	Z8	X9	Y9	Z9	X10	Y10	Z10	X11	Y11	Z11	X12	Y12	Z12	X13	Y13	Z13	X14	Y14	Z14	X15	Y15	Z15	X16	Y16	Z16	X17	Y17	Z17	X18	Y18	Z18	
264	2.2	153.785	73.583	-21.722	135.773	79.8264	-51.2682	130.364	77.3685	-84.0887	125.516	56.4915	-96.0538	189.853	48.1158	-86.9644	183.568	56.0552	-113.343	153.724	66.3139	-118.715	163.024	40.6873	-95.0475	136.275	56.8745	-99.3797	135.613	58.5326	-60.387	144.942	29.077	-90.3131	122.663	51.288	-83.698	128.256	48.1295	-48.2359	134.75	19.6533	-80.4191	115.596	41.4426	-71.1369	129.803	42.7791	-40.9106	162.04	7.06768	-38.4743	158.814	11.9954	-10.86	176.414	38.3321	-21.7739	
265	2.20833	155.357	68.801	-25.0029	137.486	80.0389	-53.8028	130.919	79.0149	-84.0215	125.481	55.7308	-100.274	188.861	46.31	-84.9987	183.516	53.1728	-114.07	154.212	68.0009	-122.018	162.042	42.942	-97.3397	137.176	58.3231	-98.2201	134.415	56.6605	-61.3002	144.116	32.984	-90.311	118.947	50.8979	-80.7107	126.288	51.1198	-51.1208	130.243	19.7072	-83.0399	114.63	40.4747	-72.9786	126.169	39.5733	-40.2131	162.23	7.92197	-43.7268	158.491	10.341	-7.28586	178.347	37.5855	-22.5853	
266	2.21667	156.351	71.6943	-25.1443	137.086	79.0607	-51.1491	131.673	77.4732	-78.628	124.434	57.7806	-100.307	188.26	45.9754	-81.396	186.076	54.3854	-115.339	161.921	63.6094	-129.559	159.874	42.3019	-96.2628	135.12	60.5874	-96.2858	135.382	62.0284	-60.4745	144.742	34.4606	-89.8307	118.775	48.1857	-82.4391	127.527	50.1588	-48.1643	133.766	19.4212	-79.1983	111.082	39.7323	-69.3632	127.473	44.0539	-39.5608	162.55	6.95146	-41.0864	156.839	9.67102	-12.3349	175.144	35.3288	-22.0204	
267	2.225	154.902	67.7781	-21.0291	138.233	79.2128	-51.7295	130.867	79.0175	-79.0047	123.955	58.986	-96.3007	190.998	51.0068	-82.5375	188.604	50.5658	-112.29	169.891	60.9496	-138.655	160.774	44.9059	-94.7473	133.948	59.8543	-94.4374	133.427	60.7703	-59.1147	142.238	33.6007	-90.127	121.354	53.9611	-79.7926	129.937	52.5132	-45.8528	131.384	20.6764	-78.8846	111.199	40.5947	-69.3682	126.985	42.0294	-37.7832	161.982	6.7374	-43.6011	158.042	8.13761	-11.2255	177.409	35.6768	-25.4027	
268	2.23333	156.982	70.864	-20.2955	138.365	83.625	-53.174	130.894	81.1646	-76.5957	124.319	59.3319	-99.4088	190.646	46.9204	-87.1514	192.829	54.7268	-114.121	183.992	58.3988	-139.375	158.589	43.251	-94.9369	135.835	62.121	-95.7786	133.519	57.4735	-56.3571	141.885	35.6627	-90.6522	121.097	55.1713	-79.1079	128.585	53.9227	-47.4479	128.64	20.2347	-80.124	112.318	43.9681	-66.3286	124.236	41.4255	-35.2119	161.651	8.6197	-44.0565	154.045	8.1312	-9.87487	177.024	36.6933	-20.7345	
269	2.24167	156.664	66.8801	-24.0895	140.188	80.7141	-52.1782	131.293	81.6267	-78.983	123.955	60.6579	-97.3663	191.675	50.0691	-84.8474	193.622	51.0499	-114.336	190.424	51.747	-137.539	161.295	43.9227	-93.0978	131.465	60.3316	-93.9429	132.756	57.1516	-56.1941	141.657	31.4161	-88.7765	120.347	53.1618	-81.4166	126.177	53.9416	-48.5179	126.102	19.7526	-81.001	111.777	42.2696	-66.6102	123.737	40.1348	-36.4534	162.344	6.94993	-43.9231	157.758	7.82668	-13.0314	178.43	35.2861	-23.3842	
270	2.25	160.191	70.7805	-23.54	140.747	84.4385	-50.2922	132.484	80.9621	-75.1568	124.552	60.6134	-93.5732	190.274	46.1363	-85.7479	193.735	49.1955	-113.591	195.416	49.4899	-136.072	160.679	44.1135	-94.4005	133.223	60.2212	-95.7321	135.427	62.023	-56.0999	139.826	33.7822	-88.9584	120.571	55.7484	-76.2535	129.279	52.5299	-43.9186	127.493	19.2904	-80.1801	110.426	40.9633	-67.0163	125.834	42.6921	-39.0872	160.196	7.75755	-40.631	158.863	8.86005	-8.99194	178.601	31.9715	-21.1942	
271	2.25833	160.317	68.0342	-21.8364	142.055	83.2234	-50.5026	133.232	83.5571	-76.8427	125.638	59.6995	-94.6503	189.685	45.9501	-84.8362	194.753	48.8628	-110.915	197.207	46.682	-139.05	158.943	41.5178	-93.338	132.306	59.195	-95.2302	132.337	58.6794	-58.2319	140.076	31.4196	-87.3986	116.964	51.7475	-75.5865	127.324	51.7723	-44.4306	127.878	20.1719	-79.0588	111.198	42.7486	-63.9141	124.981	43.2652	-37.085	162.237	5.18882	-44.4813	153.13	4.28554	-8.72712	179.758	30.301	-22.538	
272	2.26667	161.656	64.5985	-24.6841	144.26	77.8135	-50.352	136.026	77.5338	-77.5924	125.929	61.9858	-93.3323	190.105	44.2552	-83.8535	193.679	43.7564	-110.837	198.095	43.7957	-133.818	155.159	37.7692	-96.024	131.382	59.3442	-93.0534	136.066	56.5033	-54.2239	140.695	30.8264	-87.0039	116.244	52.5143	-74.5346	127.102	51.0193	-45.3587	123.401	21.4321	-80.0876	109.925	42.1867	-63.1973	125.082	37.9946	-34.8536	158.769	4.57446	-43.7366	156.268	2.20445	-11.7851	175.691	24.4049	-24.0075	
273	2.275	163.539	62.7636	-22.1106	146.808	74.8083	-51.4279	137.009	80.3081	-75.7037	126.94	61.8089	-96.924	189.502	38.865	-84.6598	194.826	41.8906	-109.564	196.434	39.1685	-135.075	156.171	34.5332	-94.3849	131.939	58.9201	-92.1523	134.634	56.8443	-57.709	135.773	30.3779	-88.3541	117.774	50.9455	-75.3193	131.499	49.7142	-43.7524	122.627	17.2413	-79.0734	112.395	42.5855	-67.2218	123.388	40.3803	-37.2837	159.495	2.22275	-40.413	154.439	2.98648	-13.6886	177.04	23.402	-28.1736	
274	2.28333	164.261	58.579	-20.2418	148.916	74.4314	-47.1589	139.89	77.755	-79.8287	128.049	60.083	-94.7352	191.549	36.4115	-88.1975	193.963	36.6632	-111.417	200.414	37.2456	-134.372	156.317	36.6657	-96.4051	133.15	57.0162	-92.1434	137.791	56.9547	-55.8903	134.078	29.7652	-90.158	121.25	50.9868	-78.6637	130.079	46.4926	-43.5916	121.281	15.2602	-78.341	110.686	41.8085	-64.7269	123.834	35.9335	-36.5085	158.569	-1.06305	-42.2142	151.679	-3.0937	-8.45079	175.101	19.8182	-27.0171	
275	2.29167	165.649	55.5566	-22.7115	151.325	74.6065	-51.0468	142.818	72.5311	-76.8197	131.066	60.877	-96.775	188.746	30.1019	-84.7902	196.278	33.4512	-111.769	201.397	32.0483	-137.947	155.188	30.1178	-95.1624	135.436	55.6076	-92.6251	136.471	54.0786	-58.6961	136.537	23.5453	-87.3463	119.095	48.4072	-76.3444	130.971	47.4356	-46.5819	120.893	18.4881	-79.8901	115.314	42.1949	-65.3288	125.922	37.0869	-36.8598	152.914	-4.49891	-45.7637	153.124	-2.66716	-10.3118	173.864	16.4081	-25.178	
276	2.3	166.739	53.4365	-19.8496	154.234	73.9947	-48.8724	146.27	77.7329	-76.5012	133.151	61.6436	-97.8422	190.091	27.6716	-84.0071	193.838	28.3565	-110.476	201.736	28.7105	-137.58	159.196	29.9586	-92.599	135.862	54.665	-92.3601	135.75	52.7392	-58.2686	136.51	28.0876	-89.3505	122.739	51.1166	-74.6116	130.616	46.2819	-46.1583	124.967	18.8913	-79.3453	116.797	42.6344	-64.9889	127.259	36.4118	-35.5112	153.929	-4.00807	-45.3017	147.886	-4.92105	-9.61197	174.196	13.8088	-26.7723	
277	2.30833	168.273	50.3391	-25.538	156.699	68.8023	-50.2578	148.591	74.6679	-78.4783	135.478	62.5138	-93.261	190.122	24.4108	-87.7324	196.165	27.9845	-110.513	198.503	23.7717	-139.813	157.153	27.9429	-93.996	138.272	53.5399	-94.6447	139.051	49.9508	-54.4673	137.766	28.1582	-88.6821	121.728	49.3082	-77.21	136.22	46.0496	-44.1224	122.454	16.9816	-77.9426	113.689	42.4086	-62.4294	130.644	35.1153	-37.4282	151.72	-6.3289	-44.412	149.6	-5.69984	-9.42656	178.34	13.4584	-26.0045	
278	2.31667	171.844	51.2633	-24.1828	159.162	67.0891	-51.7421	151.28	73.1103	-78.0711	136.221	58.653	-96.8077	192.259	22.1972	-86.6338	195.765	23.9179	-113.338	194.787	22.216	-136.66	155.235	26.4957	-94.422	141.329	53.5346	-94.8131	141.315	54.0431	-56.946	138.81	27.427	-88.7273	124.801	50.4823	-76.7564	134.09	44.4677	-45.0307	122.677	15.9114	-78.1021	112.666	41.9459	-65.4332	129.998	34.3924	-34.1565	150.564	-7.05736	-44.0033	146.309	-8.55013	-8.88592	177.667	11.6776	-25.8275	
279	2.325	172.826	48.3309	-22.1708	161.661	68.0625	-49.6478	155.14	74.4185	-76.6471	140.117	59.8195	-94.69	189.185	16.0431	-86.7819	193.099	19.1826	-115.072	194.107	24.2624	-138.157	157.381	24.4076	-93.2387	140.832	52.9729	-92.2783	142.093	52.8766	-57.6502	140.051	24.3743	-88.2741	126.225	49.9081	-77.5425	132.77	45.3949	-45.8906	120.043	15.2663	-78.1765	114.27	41.7709	-65.4025	130.809	36.4149	-35.7484	147.435	-10.3191	-39.0913	148.996	-7.26601	-9.84811	176.36	6.89921	-24.3575	
280	2.33333	173.348	48.0008	-20.4019	162.632	65.3278	-47.801	154.983	68.1251	-79.1552	140.074	57.1163	-97.7389	187.376	12.2047	-84.7774	192.657	17.4972	-116.741	184.146	33.0203	-139.379	157.44	24.6673	-96.4879	142.5	49.1536	-94.4303	144.883	48.916	-55.3575	140.822	25.0738	-88.8791	129.799	49.191	-80.6223	134.178	42.8258	-45.219	123.784	14.0758	-78.0183	116.073	42.9256	-66.1126	132.178	34.8699	-37.9032	149.127	-9.91067	-42.7954	145.585	-8.13525	-10.0579	175.679	7.33745	-26.3973	
281	2.34167	174.027	44.6547	-21.5091	163.314	62.8465	-50.9478	156.486	64.8384	-77.6869	142.345	56.1926	-97.8833	187.085	9.89778	-82.5691	190.006	17.1729	-114.241	173.58	37.4942	-129.368	159.071	19.2316	-93.352	147.727	51.6112	-92.8428	145.807	47.0442	-56.7908	138.659	18.2401	-86.2249	130.675	48.6523	-79.058	139.38	41.8258	-46.4366	124.063	14.2199	-77.5708	118.951	42.1636	-68.2952	130.515	32.5783	-35.5177	147.668	-9.21341	-40.3774	145.565	-7.18922	-8.94681	175.892	5.32233	-23.6022	
282	2.35	175.422	44.8096	-21.73	165.408	64.888	-50.0493	158.29	67.3518	-74.9858	143.341	55.28	-94.9028	189.473	10.435	-86.1836	181.948	17.6781	-114.249	164.745	45.6089	-117.514	157.754	19.7539	-95.47	146.626	49.1424	-92.853	149.951	46.0771	-56.5668	139.673	21.8421	-89.2545	131.082	47.3833	-79.4628	140.041	43.1192	-48.1785	124.017	13.0591	-77.6081	120.493	43.151	-67.1759	135.083	34.6517	-39.2314	146.52	-12.6513	-38.9581	146.277	-7.21669	-5.60229	177.447	3.86922	-24.018	
283	2.35833	174.156	44.5888	-21.8363	163.572	62.7004	-51.4496	155.943	65.1022	-76.3413	141.755	52.274	-93.8296	187.934	11.2573	-83.2795	178.887	22.4988	-115.272	164.127	51.2444	-112.11	160.322	19.2439	-92.5376	145.509	47.3935	-93.7123	148.608	45.008	-57.3861	136.9	18.3629	-87.9493	129.304	47.7531	-79.0453	136.84	42.7786	-47.9776	121.281	12.3947	-77.3445	116.396	41.5519	-68.3583	131.962	34.9277	-42.04	147.349	-10.2116	-39.7273	143.082	-9.0044	-7.12463	176.532	4.31591	-22.716	
284	2.36667	172.812	43.404	-20.9401	163.772	63.5587	-50.9499	157.653	67.4562	-74.186	140.474	53.5356	-97.8595	188.475	12.7914	-83.008	183.482	21.4872	-115.465	166.516	51.0318	-116.026	159.826	20.6666	-93.7833	146.157	50.1015	-93.0096	151.57	46.4488	-56.384	138.265	20.2959	-89.4357	127.584	46.2255	-80.5546	139.366	41.7578	-46.6155	125.307	16.3187	-78.2711	122.653	42.5768	-67.7368	132.486	34.5256	-42.0261	145.548	-10.8597	-40.7699	145.458	-9.57286	-5.79624	173.551	2.22526	-22.1657	
285	2.375	173.624	43.0785	-23.3379	162.903	61.2398	-49.9353	157.152	67.4876	-75.1393	141.276	53.4267	-93.9422	190.105	13.5351	-83.7739	183.937	19.1254	-114.898	170.242	45.3618	-125.941	162.426	21.6959	-92.1593	146.976	50.8555	-91.9673	148.203	46.8213	-56.6046	137.795	22.0395	-88.5411	129.084	47.6157	-80.7601	136.01	40.8112	-45.1427	122.919	16.8316	-79.6401	120.891	43.0998	-65.9337	130.438	35.5256	-38.4184	151.557	-10.8424	-39.301	147.704	-9.10583	-11.2786	176.592	5.39093	-21.3022	
